<svg xmlns="http://www.w3.org/2000/svg" xmlns:xlink="http://www.w3.org/1999/xlink" id="Layer_1" x="0" y="0" enable-background="new 0 0 62.9 103.7" version="1.1" viewBox="0 0 62.9 103.7" xml:space="preserve"><switch><g><g><path fill="#72BF9D" d="M61.1,26.2H58v-0.1c0-2.4-1.9-4.4-4.2-4.4H51c-0.1-0.2-0.3-0.3-0.4-0.6c-0.3-0.5-0.6-1.2-0.7-2.1 c-0.4-3-3.3-6.9-8.1-6.2c0,0,0.3-4.7-4.6-6.5c-3.6-1.3-5.2-4.8-5.7-5.9l0-0.4c0,0,0,0.1-0.1,0.2C31.3,0.1,31.3,0,31.3,0v0.4 c-0.5,1.1-2.1,4.6-5.7,5.9c-5,1.8-4.6,6.5-4.6,6.5c-4.8-0.6-7.7,3.2-8.1,6.2c-0.1,0.9-0.4,1.6-0.7,2.1c-0.1,0.2-0.3,0.4-0.4,0.6 H9.2c-2.3,0-4.2,2-4.2,4.4v0.1H1.8c-1,0-1.8,0.8-1.8,1.8v2v43.6v2c0,1,0.8,1.8,1.8,1.8h3.1v0.1C4.9,80,6.8,82,9.2,82h2.8 c0.1,0.2,0.3,0.3,0.4,0.6c0.3,0.5,0.6,1.2,0.7,2.1c0.4,3,3.3,6.9,8.1,6.2c0,0-0.3,4.7,4.6,6.5c3.6,1.3,5.2,4.8,5.7,5.9l0,0.4 c0,0,0-0.1,0.1-0.2c0.1,0.1,0.1,0.2,0.1,0.2v-0.4c0.5-1.1,2.1-4.6,5.7-5.9c5-1.8,4.6-6.5,4.6-6.5c4.8,0.6,7.7-3.2,8.1-6.2 c0.1-0.9,0.4-1.6,0.7-2.1c0.1-0.2,0.3-0.4,0.4-0.6h2.6c2.3,0,4.2-2,4.2-4.4v-0.1h3.1c1,0,1.8-0.8,1.8-1.8v-2V30v-2 C62.9,27.1,62.1,26.2,61.1,26.2z"/><g><path fill="#FFF" d="M31.5,55.7L31.5,55.7h-0.1c-0.6,0-1.1-0.2-1.6-0.4l-17-9.6c-0.2-0.1-0.5-0.3-0.8-0.4 c-1.6-0.9-2.8-1.5-2.9-2.2c0-0.2,0-0.4,0.2-0.5l3.1-2.4c1.4-1.2,2.6-1.4,3.9-0.8l12.4,7l2.8,2.8l2.8-2.8l12.4-6.9 c1.4-0.7,2.5-0.4,3.9,0.8l3.1,2.3c0.2,0.2,0.2,0.4,0.2,0.6c-0.1,0.7-1.3,1.3-2.9,2.2c-0.3,0.1-0.5,0.3-0.8,0.4l-17,9.6 C32.7,55.6,32.1,55.7,31.5,55.7z M31.5,55.2L31.5,55.2c0.5,0,1-0.1,1.4-0.4l17-9.6c0.2-0.1,0.5-0.3,0.8-0.4 c0.9-0.5,2.6-1.4,2.6-1.8c0,0,0,0,0-0.1l-3.1-2.3c-1.3-1.1-2.2-1.2-3.3-0.7l-12.3,6.9L31.5,50l-3.2-3.2L16,39.9 c-1.1-0.5-2-0.3-3.3,0.7L9.6,43c0.1,0.5,1.7,1.4,2.6,1.8c0.3,0.1,0.5,0.3,0.8,0.4l17,9.6C30.4,55.1,30.9,55.2,31.5,55.2 L31.5,55.2z"/><path fill="#FFF" d="M40.9,66.8c-0.1,0-0.2,0-0.3-0.1l-9.1-5.1l-9.1,5.1c-0.3,0.1-0.6,0-0.8-0.2l-0.8-1.5 c-0.1-0.1-0.1-0.3-0.1-0.4c0-0.1,0.1-0.3,0.3-0.3l7.7-4.3L9.9,49.4c-0.1,0-0.2-0.1-0.2-0.2l-1.8-2.9c-0.1-0.2-0.1-0.5,0.1-0.7 c0.2-0.2,0.5-0.2,0.7-0.1l22.8,12.8l22.8-12.8c0.2-0.1,0.5-0.1,0.7,0.1c0.2,0.2,0.2,0.5,0.1,0.7l-1.8,2.9 c-0.1,0.1-0.1,0.1-0.2,0.2L34.3,60l7.7,4.3c0.3,0.2,0.4,0.5,0.2,0.8l-0.8,1.5c-0.1,0.1-0.2,0.2-0.3,0.3 C41,66.8,40.9,66.8,40.9,66.8z M8.3,46l1.8,2.9l19.6,11l-8.5,4.8l0.8,1.5l9.4-5.3l9.4,5.3l0.8-1.5L33.2,60l19.6-11l1.8-2.9 L31.5,59L8.3,46z"/></g></g></g></switch></svg>